<svg width="49" height="49" viewBox="0 0 49 49" fill="none" xmlns="http://www.w3.org/2000/svg">
<path d="M15.3166 0H20.58V2.20092H17.5175V4.40183H20.58V6.60275H15.3166V0Z" fill="#E5E5E5" fill-opacity="0.51"/>
<path d="M21.6315 0H26.8969V1.91508H23.8344V2.29688H26.8969V6.69871H21.6315V4.68971H24.694V4.30588H21.6315V0Z" fill="#E5E5E5" fill-opacity="0.51"/>
<path d="M27.9504 0H33.2118V1.91508H30.1493V2.29688H33.2118V6.69871H27.9504V4.68971H31.0129V4.30588H27.9504V0Z" fill="#E5E5E5" fill-opacity="0.51"/>
<path fill-rule="evenodd" clip-rule="evenodd" d="M24.4816 49L10.3043 45.0637L6.125 9.63055H42.875L38.6978 45.0596L24.4816 49ZM14.3876 25.6699L14.7776 30.0146H29.839L29.3347 35.6495L24.4878 36.9603H24.4837L19.6449 35.6536L19.3346 32.1889H14.9715L15.58 39.0122L24.4816 41.4826L33.3976 39.0122L34.4837 26.8357L34.5899 25.6699L35.3739 16.8723H13.6057L14.0017 21.2191H30.6128L30.2167 25.6699H14.3876Z" fill="#E5E5E5" fill-opacity="0.51"/>
</svg>
