<svg width="49" height="49" viewBox="0 0 49 49" fill="none" xmlns="http://www.w3.org/2000/svg">
<path d="M10.3716 0H12.5807V2.18254H14.602V0H16.8111V6.60683H14.602V4.39571H12.5807V6.60683H10.3737V0H10.3716Z" fill="#E5E5E5" fill-opacity="0.51"/>
<path d="M19.7144 2.19071H17.7707V0H23.8691V2.19071H21.9234V6.60683H19.7144V2.19071Z" fill="#E5E5E5" fill-opacity="0.51"/>
<path d="M24.8369 0H27.1399L28.5568 2.32138L29.9716 0H32.2746V6.60683H30.0758V3.332L28.5568 5.68196H28.518L26.9969 3.33404V6.60683H24.8369V0Z" fill="#E5E5E5" fill-opacity="0.51"/>
<path d="M33.373 0H35.5842V4.42429H38.6875V6.60887H33.373V0Z" fill="#E5E5E5" fill-opacity="0.51"/>
<path fill-rule="evenodd" clip-rule="evenodd" d="M10.3023 45.0637L6.125 9.63055H42.875L38.6957 45.0596L24.4796 49L10.3023 45.0637ZM18.7486 25.6678L18.3525 21.217H34.9819L35.3698 16.8723H13.6057L14.7776 30.0146H29.839L29.3347 35.6495L24.4878 36.9603H24.4837L19.6449 35.6536L19.3346 32.1889H14.9695L15.5779 39.0122L24.4796 41.4826L33.3955 39.0122L34.4817 26.8357L34.5879 25.6699H18.7486V25.6678Z" fill="#E5E5E5" fill-opacity="0.51"/>
</svg>
