<svg width="42" height="42" viewBox="0 0 42 42" fill="none" xmlns="http://www.w3.org/2000/svg">
<path d="M38.493 7.49703C38.493 7.49703 39.06 5.81703 37.842 4.64103C36.729 3.54903 35.28 4.13703 35.28 4.13703C33.999 4.76703 23.184 11.424 19.173 15.834C17.367 17.85 14.847 23.793 16.884 25.956C18.816 28.014 25.2 25.599 26.943 23.856C31.269 19.53 37.884 8.79903 38.493 7.49703ZM2.94 37.065C7.917 33.789 6.006 29.904 9.723 27.321C11.676 25.956 14.385 26.019 16.191 27.93C17.514 29.337 17.871 33.327 15.855 35.196C12.558 38.241 7.455 38.451 2.94 37.065Z" fill="#F8F8F8"/>
</svg>
