<svg width="49" height="49" viewBox="0 0 49 49" fill="none" xmlns="http://www.w3.org/2000/svg">
<path d="M3.0625 3.0625V45.9375H45.9375V3.0625H3.0625ZM26.0312 36.3672C26.0312 40.5408 23.5659 42.5754 19.9972 42.5754C16.7739 42.5754 14.9029 40.9064 13.9535 38.8918L17.2342 36.906C17.8668 38.0286 18.3472 38.978 19.7282 38.978C20.8767 38.978 21.8203 38.4602 21.8203 36.4457V22.9688H26.0312V36.3672ZM35.5394 42.4797C31.7983 42.4797 29.3809 40.7915 28.2008 38.4602L31.4863 36.5586C32.3477 37.9693 33.4722 38.9091 35.458 38.9091C37.1271 38.9091 38.0965 38.1702 38.0965 37.0189C38.0965 35.6379 37.0984 35.1489 35.2561 34.3392L34.2493 33.9067C31.3418 32.6702 29.4144 31.116 29.4144 27.8343C29.4144 24.8129 31.716 22.606 35.3135 22.606C37.8755 22.606 39.7158 23.4023 41.0413 25.7336L37.8984 27.7539C37.2075 26.5165 36.4629 26.0312 35.3087 26.0312C34.1287 26.0312 33.3803 26.7796 33.3803 27.7539C33.3803 28.9626 34.1287 29.4517 35.8552 30.2001L36.862 30.6317C40.2872 32.0998 42.2156 33.5985 42.2156 36.9634C42.2166 40.5906 39.3675 42.4797 35.5394 42.4797Z" fill="#E5E5E5" fill-opacity="0.51"/>
</svg>
