<svg width="42" height="42" viewBox="0 0 42 42" fill="none" xmlns="http://www.w3.org/2000/svg">
<path d="M7 10.5V28H15.75V21C15.75 20.0717 16.1187 19.1815 16.7751 18.5251C17.4315 17.8687 18.3217 17.5 19.25 17.5H28C28.9283 17.5 29.8185 17.8687 30.4749 18.5251C31.1313 19.1815 31.5 20.0717 31.5 21V28H35V10.5H7ZM0 35V31.5H7C6.07174 31.5 5.1815 31.1313 4.52513 30.4749C3.86875 29.8185 3.5 28.9283 3.5 28V10.5C3.5 9.57174 3.86875 8.6815 4.52513 8.02513C5.1815 7.36875 6.07174 7 7 7H35C35.9283 7 36.8185 7.36875 37.4749 8.02513C38.1312 8.6815 38.5 9.57174 38.5 10.5V28C38.5 28.9283 38.1312 29.8185 37.4749 30.4749C36.8185 31.1313 35.9283 31.5 35 31.5H42V35H31.5C31.5 35.9283 31.1313 36.8185 30.4749 37.4749C29.8185 38.1313 28.9283 38.5 28 38.5H19.25C18.3217 38.5 17.4315 38.1313 16.7751 37.4749C16.1187 36.8185 15.75 35.9283 15.75 35H0ZM20.125 35C19.8929 35 19.6704 35.0922 19.5063 35.2563C19.3422 35.4204 19.25 35.6429 19.25 35.875C19.25 36.1071 19.3422 36.3296 19.5063 36.4937C19.6704 36.6578 19.8929 36.75 20.125 36.75C20.3571 36.75 20.5796 36.6578 20.7437 36.4937C20.9078 36.3296 21 36.1071 21 35.875C21 35.6429 20.9078 35.4204 20.7437 35.2563C20.5796 35.0922 20.3571 35 20.125 35ZM27.125 35C26.8929 35 26.6704 35.0922 26.5063 35.2563C26.3422 35.4204 26.25 35.6429 26.25 35.875C26.25 36.1071 26.3422 36.3296 26.5063 36.4937C26.6704 36.6578 26.8929 36.75 27.125 36.75C27.3571 36.75 27.5796 36.6578 27.7437 36.4937C27.9078 36.3296 28 36.1071 28 35.875C28 35.6429 27.9078 35.4204 27.7437 35.2563C27.5796 35.0922 27.3571 35 27.125 35ZM22.75 35V36.75H24.5V35H22.75ZM19.25 21V33.25H28V21H19.25Z" fill="#F8F8F8"/>
</svg>
