<svg width="42" height="42" viewBox="0 0 42 42" fill="none" xmlns="http://www.w3.org/2000/svg">
<path d="M26.7575 18.0075L21.8925 22.8725C21.6012 22.795 21.3014 22.7539 21 22.75C20.0717 22.75 19.1815 23.1187 18.5251 23.7751C17.8688 24.4315 17.5 25.3217 17.5 26.25C17.5039 26.5514 17.545 26.8512 17.6225 27.1425L16.2575 28.5075C16.0935 28.6702 15.9633 28.8637 15.8744 29.077C15.7856 29.2902 15.7399 29.519 15.7399 29.75C15.7399 29.981 15.7856 30.2098 15.8744 30.423C15.9633 30.6363 16.0935 30.8298 16.2575 30.9925C16.4202 31.1565 16.6137 31.2867 16.827 31.3756C17.0402 31.4644 17.269 31.5101 17.5 31.5101C17.731 31.5101 17.9598 31.4644 18.173 31.3756C18.3863 31.2867 18.5798 31.1565 18.7425 30.9925L20.1075 29.6275C20.3988 29.705 20.6986 29.7461 21 29.75C21.9283 29.75 22.8185 29.3813 23.4749 28.7249C24.1313 28.0685 24.5 27.1783 24.5 26.25C24.4961 25.9486 24.455 25.6488 24.3775 25.3575L29.2425 20.4925C29.572 20.163 29.7572 19.716 29.7572 19.25C29.7572 18.784 29.572 18.337 29.2425 18.0075C28.913 17.678 28.466 17.4928 28 17.4928C27.534 17.4928 27.087 17.678 26.7575 18.0075ZM21 7C18.7019 7 16.4262 7.45265 14.303 8.33211C12.1798 9.21157 10.2507 10.5006 8.62564 12.1256C5.34375 15.4075 3.50001 19.8587 3.50001 24.5C3.49139 27.966 4.52152 31.3551 6.45751 34.23C6.71742 34.6152 7.11972 34.8814 7.5759 34.97C8.03208 35.0586 8.50478 34.9624 8.89001 34.7025C9.27523 34.4426 9.54143 34.0403 9.63004 33.5841C9.71866 33.1279 9.62242 32.6552 9.36251 32.27C7.95291 30.1622 7.14225 27.7111 7.01708 25.1785C6.8919 22.6459 7.45692 20.1268 8.65181 17.8903C9.84669 15.6538 11.6266 13.7838 13.8014 12.4799C15.9762 11.1761 18.4643 10.4874 21 10.4874C23.5357 10.4874 26.0238 11.1761 28.1986 12.4799C30.3734 13.7838 32.1533 15.6538 33.3482 17.8903C34.5431 20.1268 35.1081 22.6459 34.9829 25.1785C34.8578 27.7111 34.0471 30.1622 32.6375 32.27C32.5085 32.4607 32.4184 32.6749 32.3724 32.9004C32.3263 33.1259 32.3252 33.3583 32.3691 33.5843C32.413 33.8102 32.501 34.0253 32.6281 34.2172C32.7553 34.4091 32.919 34.574 33.11 34.7025C33.3997 34.8972 33.741 35.0008 34.09 35C34.3767 35.0004 34.659 34.9304 34.9123 34.7962C35.1656 34.6619 35.382 34.4675 35.5425 34.23C37.4785 31.3551 38.5086 27.966 38.5 24.5C38.5 19.8587 36.6563 15.4075 33.3744 12.1256C30.0925 8.84374 25.6413 7 21 7Z" fill="#F8F8F8"/>
</svg>
